<?xml version="1.0" encoding="iso-8859-1"?>
<!-- Uploaded to: SVG Repo, www.svgrepo.com, Generator: SVG Repo Mixer Tools -->
<!DOCTYPE svg PUBLIC "-//W3C//DTD SVG 1.1//EN" "http://www.w3.org/Graphics/SVG/1.1/DTD/svg11.dtd">
<svg height="800px" width="800px" version="1.1" id="Capa_1" xmlns="http://www.w3.org/2000/svg" xmlns:xlink="http://www.w3.org/1999/xlink" 
	 viewBox="0 0 299.77 299.77" xml:space="preserve">
<g id="XMLID_42_">
	<g>
		<path style="fill:#EA5B2C;" d="M59.49,22.455h180.79c-1.211,10.34-4.19,20.39-8.78,29.699H68.26
			C63.67,42.845,60.689,32.795,59.49,22.455z"/>
		<path style="fill:#E1757B;" d="M42.7,73.225H257.06c-1.3,13.271-5.05,26.19-11.04,38.04H53.75C47.75,99.415,44,86.495,42.7,73.225
			z"/>
		<path style="fill:#983823;" d="M21.75,132.345h256.26c-5.37,65.98-60.79,118.021-128.13,118.021
			C82.54,250.365,27.13,198.325,21.75,132.345z"/>
		<path d="M288.979,111.265c5.82,0,10.54,4.72,10.54,10.54c0,58.22-33.43,108.78-82.1,133.5v32.54c0,5.82-4.71,10.54-10.53,10.54
			H92.88c-5.82,0-10.54-4.72-10.54-10.54v-32.54c-48.66-24.72-82.09-75.28-82.09-133.5c0-5.82,4.72-10.54,10.54-10.54h19.83
			c-6.24-15.34-9.511-31.86-9.511-48.57c0-5.819,4.721-10.54,10.54-10.54h13.62c-4.91-12.779-7.47-26.43-7.47-40.229
			c0-5.82,4.72-10.54,10.54-10.54h203.08c5.82,0,10.54,4.72,10.54,10.54c0,13.8-2.561,27.45-7.46,40.229h13.62
			c5.81,0,10.529,4.721,10.529,10.54c0,16.71-3.26,33.23-9.5,48.57H288.979z M278.01,132.345H21.75
			c5.38,65.98,60.79,118.021,128.13,118.021C217.22,250.365,272.64,198.325,278.01,132.345z M257.06,73.225H42.7
			c1.3,13.271,5.05,26.19,11.05,38.04h192.27C252.01,99.415,255.76,86.495,257.06,73.225z M240.28,22.455H59.49
			c1.199,10.34,4.18,20.39,8.77,29.699H231.5C236.09,42.845,239.069,32.795,240.28,22.455z M196.35,277.305v-13.26
			c-14.64,4.8-30.25,7.399-46.47,7.399c-16.21,0-31.83-2.6-46.46-7.399v13.26H196.35z"/>
	</g>
	<g>
	</g>
</g>
</svg>