<?xml version="1.0" encoding="iso-8859-1"?>
<!-- Uploaded to: SVG Repo, www.svgrepo.com, Generator: SVG Repo Mixer Tools -->
<svg height="800px" width="800px" version="1.1" id="Capa_1" xmlns="http://www.w3.org/2000/svg" xmlns:xlink="http://www.w3.org/1999/xlink" 
	 viewBox="0 0 474.182 474.182" xml:space="preserve">
<g>
	<g>
		<path style="fill:#b63f0c;" d="M474.116,257.339c-0.667-15.664-25.052-15.729-24.386,0c0.325,7.649,0.39,16.794-6.917,21.224
			c-4.324,2.626-9.901,2.756-15.436,1.951v-44.626c-11.03,5.267-27.865,9.502-51.665,13.201
			c-37.733,5.869-86.569,9.104-137.877,9.104c-51.462,0-99.258-3.032-135.284-8.527c-29.539-4.511-47.755-9.982-57.217-17.485
			v48.519c-5.04,0.569-10.031,0.26-13.965-2.13c-7.308-4.43-7.243-13.575-6.917-21.224c0.667-15.729-23.719-15.664-24.386,0
			c-0.667,15.729,3.601,34.473,18.996,42.277c8.397,4.259,17.314,5.503,26.28,5.032v77.473
			c-0.008,50.609,42.179,91.633,94.218,91.633h196.305c52.031,0,91.512-41.025,91.512-91.633v-77.571
			c9.462,0.699,18.891-0.447,27.743-4.942C470.515,291.813,474.783,273.068,474.116,257.339z M335.508,436.607
			c-19.696,7.324-28.117-24.109-8.641-31.352c40.261-14.973,28.588-89.496,27.353-122.514c-0.78-20.98,31.734-20.899,32.514,0
			C388.701,335.439,396.472,413.936,335.508,436.607z"/>
		<path style="fill:#b63f0c;" d="M47.829,216.55c0,1.796,1.024,3.536,2.878,5.227c15.582,14.184,93.731,24.215,186.738,24.215
			c90.593,0,170.692-10.372,189.932-24.199c2.861-2.057,4.406-4.186,4.406-6.381c0-23.695-0.073-43.163-90.447-50.73
			c4.845,2.918,7.356,8.194,7.218,13.152c-0.171,6.454-4.65,13.396-14.071,13.396l-1.016-0.033
			c-17.932-0.975-32.433-7.299-45.634-19.891c-1.935-1.853-3.609-3.536-5.154-5.072c-1.731-1.731-3.243-3.203-4.731-4.56
			c-12.502-0.26-25.89-0.406-40.505-0.406c-8.12,0-15.769,0.057-23.207,0.146c-2.04,1.845-4.105,3.82-6.308,5.975l-4.032,3.91
			c-13.193,12.599-27.686,18.923-45.626,19.899l-1.016,0.033c-9.421,0-13.9-6.942-14.071-13.396
			c-0.163-5.779,3.243-11.973,9.795-14.371C45.399,170.128,47.829,191.327,47.829,216.55z"/>
		<path style="fill:#b63f0c;" d="M194.835,149.538c-1.049,1.008-2.097,2.016-3.121,3.016c-1.114,1.097-2.243,2.195-3.381,3.284
			c-2.325,2.211-4.747,4.357-7.373,6.308c-5.966,4.446-13.014,7.852-22.695,8.381c-5.641,0.309-6.096,4.593-6.031,7.08
			c0.041,1.268-1.154,5.349,6.584,5.471c16.086-0.894,28.068-6.332,39.919-17.655l3.731-3.845l0,0
			c2.211-2.162,4.357-4.211,6.527-6.186c2.512-2.284,5.08-4.381,7.795-6.21c4.137-2.788,8.633-4.975,14.054-6.064
			c1.634-0.252,3.17-0.374,4.723-0.512c0.772-0.073,1.601-0.211,2.357-0.252c0.91-0.049,1.78,0,2.674-0.016
			c2.024-0.033,4.056-0.008,6.064,0.138c2.309,0.163,4.641,0.431,7.023,0.813c1.406,0.219,2.853,0.496,4.316,0.78
			c0.39,0.073,0.756,0.13,1.146,0.211c6.926,1.504,11.762,3.138,15.607,5.129c3.39,1.756,6.031,3.796,8.722,6.267
			c1.577,1.447,3.178,3.048,4.95,4.828c0.447,0.447,1.024,1.008,1.504,1.479c1.114,1.105,2.187,2.195,3.512,3.455
			c11.876,11.331,26.093,16.777,42.204,17.655l2.048,3.609l0.268,0.471v-0.536v-3.528c0,0,4.17-4.202,4.211-5.495
			c0.065-2.487-2.195-6.771-7.844-7.08c-9.193-0.504-16.127-3.609-22.012-7.714c-2.861-2-5.495-4.211-7.974-6.527
			c-1.325-1.236-2.626-2.487-3.902-3.731c-0.878-0.862-1.926-1.715-2.853-2.593c-1.918-1.788-3.804-3.593-5.869-5.324
			c-7.543-6.308-15.867-10.201-24.963-12.006c-0.024-0.008-0.024-0.024-0.049-0.024c-0.041-0.008-0.081-0.008-0.122-0.016
			c-1.073-0.228-2.203-0.333-3.3-0.52c-1.813-0.317-3.609-0.65-5.471-0.87c-1.894-0.219-3.82-0.309-5.739-0.423
			c-3.926-0.244-7.86-0.293-11.778-0.13c-1.805,0.081-3.577,0.195-5.349,0.358c-2.349,0.211-4.706,0.423-6.982,0.78
			c-0.39,0.065-0.65,0.268-0.975,0.398c-9.827,1.593-18.663,5.682-26.767,12.461C198.322,146.246,196.558,147.888,194.835,149.538z"
			/>
		<path style="fill#b63f0c;" d="M145.055,4.004c-11.071,13.981-14.558,27.377-7.365,44.041
			c7.779,18.013,26.215,29.588,16.095,51.186c-5.625,12.006,12.209,22.524,17.867,10.445c7.543-16.095,7.852-30.661-0.089-46.617
			c-7.47-15.005-25.304-27.458-11.876-44.423C167.88,8.296,153.338-6.457,145.055,4.004z"/>
		<path style="fill:#b63f0c;" d="M217.489,4.004c-11.071,13.981-14.558,27.377-7.364,44.041
			c7.779,18.013,26.215,29.588,16.095,51.186c-5.625,12.006,12.209,22.524,17.867,10.445c7.543-16.095,7.852-30.661-0.089-46.617
			c-7.47-15.005-25.304-27.458-11.876-44.423C240.314,8.296,225.772-6.457,217.489,4.004z"/>
		<path style="fill#b63f0c;" d="M289.931,4.004c-11.071,13.981-14.558,27.377-7.364,44.041
			c7.779,18.013,26.215,29.588,16.095,51.186c-5.625,12.006,12.209,22.524,17.867,10.445c7.543-16.095,7.852-30.661-0.089-46.617
			c-7.47-15.005-25.304-27.458-11.876-44.423C312.756,8.296,298.214-6.457,289.931,4.004z"/>
	</g>
</g>
</svg>