<?xml version="1.0" encoding="iso-8859-1"?>
<!-- Uploaded to: SVG Repo, www.svgrepo.com, Generator: SVG Repo Mixer Tools -->
<svg height="800px" width="800px" version="1.1" id="Layer_1" xmlns="http://www.w3.org/2000/svg" xmlns:xlink="http://www.w3.org/1999/xlink" 
	 viewBox="0 0 512.001 512.001" xml:space="preserve">
<path style="fill:#5B5B5B;" d="M388.839,178.5v188.872c0,6.376-3.987,11.543-8.904,11.543s-8.904-5.169-8.904-11.543V178.5
	c0-6.376,3.987-11.543,8.904-11.543S388.839,172.125,388.839,178.5z"/>
<path style="fill:#CF8F3D;" d="M50.088,123.95h43.427c3.073,0,5.565-2.492,5.565-5.565V33.013C99.079,14.854,113.921,0,132.066,0
	l0,0c18.14,0,32.983,14.856,32.983,33.013v85.373c0,3.073,2.492,5.565,5.565,5.565h37.861c3.073,0,5.565,2.492,5.565,5.565v252.968
	c0,3.073-2.492,5.565-5.565,5.565h-37.861c-3.073,0-5.565,2.492-5.565,5.565v85.374c0,18.157-14.842,33.013-32.983,33.013l0,0
	c-18.145,0-32.987-14.855-32.987-33.013v-85.374c0-3.073-2.492-5.565-5.565-5.565H55.653c-3.073,0-5.565-2.492-5.565-5.565V123.95
	L50.088,123.95z"/>
<path style="fill:#B76700;" d="M123.548,510.87c-14.05-3.783-24.469-16.671-24.469-31.883v-85.374c0-3.073-2.492-5.565-5.565-5.565
	H55.653c-3.073,0-5.565-2.492-5.565-5.565V123.95h43.427c3.073,0,5.565-2.492,5.565-5.565V33.013
	c0-15.213,10.42-28.101,24.469-31.883V510.87z"/>
<path style="fill:#9E9E9E;" d="M461.914,0v111.603c0,45.121-36.891,82.044-81.979,82.044h-0.006
	c-45.083,0-81.973-36.92-81.973-82.044V0H461.914L461.914,0z"/>
<path style="fill:#C13421;" d="M412.917,418.623v19.337v34.58c0,18.157-14.842,33.012-32.983,33.012l0,0
	c-18.15,0-32.987-14.855-32.987-33.012v-34.58v-19.337v-34.578c0-18.159,14.837-33.014,32.987-33.014l0,0
	c18.14,0,32.983,14.855,32.983,33.014V418.623L412.917,418.623z"/>
<path style="fill:#7F7F7F;" d="M364.261,49.88v63.167c0,4.917-3.987,8.904-8.904,8.904s-8.904-3.987-8.904-8.904V49.88
	c0-4.917,3.987-8.904,8.904-8.904S364.261,44.963,364.261,49.88z M404.507,40.976c-4.917,0-8.904,3.987-8.904,8.904v63.167
	c0,4.917,3.987,8.904,8.904,8.904s8.904-3.987,8.904-8.904V49.88C413.412,44.963,409.426,40.976,404.507,40.976z"/>
<path style="fill:#FFBB5E;" d="M173.954,178.741V333.26c0,4.917-3.987,8.904-8.904,8.904c-4.917,0-8.904-3.987-8.904-8.904V178.741
	c0-4.917,3.987-8.904,8.904-8.904C169.967,169.837,173.954,173.824,173.954,178.741z"/>
<path style="fill:#FF4328;" d="M412.917,384.047v34.578v19.337v34.58c0,18.157-14.842,33.011-32.983,33.011
	c-0.001,0-0.002,0-0.002,0V351.033c0.001,0,0.002,0,0.002,0C398.075,351.033,412.917,365.887,412.917,384.047z"/>
</svg>