<?xml version="1.0" encoding="iso-8859-1"?>
<!-- Uploaded to: SVG Repo, www.svgrepo.com, Generator: SVG Repo Mixer Tools -->
<svg height="800px" width="800px" version="1.1" id="Layer_1" xmlns="http://www.w3.org/2000/svg" xmlns:xlink="http://www.w3.org/1999/xlink" 
	 viewBox="0 0 512.002 512.002" xml:space="preserve">
<circle style="fill:#FFD15D;" cx="256.001" cy="256" r="256"/>
<path style="fill:#F9B54C;" d="M511.887,263.401L404.091,155.605l12.964,77.831l-73.859-73.859L238.188,278.464L123.283,172.063
	l-3.843,19.504l-19.504-19.504l-3.949,20.954l-20.954-20.954l-8.083,19.004l2.755,36.216l28.276,28.275v28.312L86.486,386.386
	L207.49,507.39c15.71,3.013,31.923,4.611,48.512,4.611C394.91,512,507.969,401.361,511.887,263.401z"/>
<circle style="fill:#E6F3FF;" cx="255.432" cy="256" r="130.379"/>
<g>
	<path style="fill:#CFDBE6;" d="M255.432,125.616c72.009,0,130.386,58.375,130.386,130.384s-58.375,130.384-130.386,130.384V125.616
		z"/>
	<circle style="fill:#CFDBE6;" cx="255.432" cy="256" r="78.231"/>
</g>
<path style="fill:#B8C9D9;" d="M255.432,177.769c43.206,0,78.231,35.025,78.231,78.231c0,43.206-35.025,78.231-78.231,78.231
	V177.769z"/>
<path style="fill:#F1543F;" d="M207.23,247.486c0-13.31,10.79-24.102,24.102-24.102c13.31,0,24.102,10.79,24.102,24.102
	c0-13.31,10.79-24.102,24.102-24.102c13.31,0,24.102,10.79,24.102,24.102c0,23.047-48.202,50.612-48.202,50.612
	S207.23,271.831,207.23,247.486z"/>
<path style="fill:#C1321F;" d="M255.432,247.486c0-13.31,10.79-24.102,24.102-24.102c13.31,0,24.102,10.79,24.102,24.102
	c0,23.047-48.202,50.612-48.202,50.612L255.432,247.486z"/>
<path style="fill:#804000;" d="M392.929,151.692v234.693h18.965v-77.178l0,0c10.431,0,18.758-8.716,18.258-19.135
	C428.066,246.679,420.251,145.051,392.929,151.692z"/>
<path style="fill:#935635;" d="M119.792,170.546h-3.424c-2.751,0-4.98,2.363-4.98,5.28v32.997c0,2.915-2.229,5.28-4.98,5.28
	c-2.751,0-4.98-2.363-4.98-5.28v-32.997c0-2.915-2.231-5.28-4.98-5.28h-4.98c-2.751,0-4.98,2.363-4.98,5.28v32.997
	c0,2.915-2.229,5.28-4.98,5.28c-2.751,0-4.98-2.363-4.98-5.28v-32.997c0-2.915-2.231-5.28-4.98-5.28h-3.424
	c-2.751,0-4.98,2.363-4.98,5.28v33.602c0,14.034,10.318,25.483,23.347,26.367v150.59h14.943v-150.59
	c13.029-0.883,23.347-12.333,23.347-26.367v-33.602C124.774,172.911,122.543,170.546,119.792,170.546z"/>
</svg>