<?xml version="1.0" encoding="iso-8859-1"?>
<!-- Uploaded to: SVG Repo, www.svgrepo.com, Generator: SVG Repo Mixer Tools -->
<svg xmlns="http://www.w3.org/2000/svg" xmlns:xlink="http://www.w3.org/1999/xlink" version="1.1" id="Capa_1"  viewBox="0 0 503.859 503.859" xml:space="preserve" width="512" height="512">
<g>
	<path style="fill:#E95B2D;" d="M194.69,153.517L57.193,16.019c-11.359-11.358-29.777-11.358-41.137,0   c-11.359,11.359-11.359,29.777,0,41.137l137.497,137.496c-54.422,74.218-48.09,179.056,19,246.146   c74.083,74.083,194.197,74.083,268.281,0c74.084-74.084,74.084-194.197,0-268.281C373.745,105.426,268.908,99.095,194.69,153.517z"/>
	<path style="fill:#FABA45;" d="M303.561,240.73l-2.111,2.11c-19.344-5.032-40.764,0.014-55.917,15.168   c-16.07,16.07-20.773,39.188-14.142,59.4c-9.304,19.856-5.76,44.242,10.643,60.643c20.928,20.932,54.864,20.93,75.793,0.002   l61.529-61.529c20.929-20.93,20.93-54.865,0-75.795C358.425,219.798,324.49,219.8,303.561,240.73z"/>
	<circle style="fill:#E95B2D;" cx="286.726" cy="299.203" r="29.444"/>
	<path style="fill:#0F2639;" d="M446.138,167.212c-37.246-37.245-86.767-57.758-139.44-57.758   c-40.095,0-78.396,11.834-111.18,34.284L62.496,10.715C55.586,3.806,46.398,0,36.625,0c-9.773,0-18.961,3.805-25.872,10.715   c-14.266,14.266-14.266,37.478,0,51.744l133.024,133.023c-25.021,36.602-36.987,80.893-33.771,125.456   c3.407,47.205,23.737,91.655,57.244,125.163c37.247,37.246,86.768,57.759,139.443,57.759c52.675,0,102.197-20.513,139.444-57.759   C523.028,369.211,523.028,244.102,446.138,167.212z M435.532,435.493c-34.414,34.414-80.169,53.366-128.838,53.366   c-48.668,0-94.423-18.952-128.837-53.366c-30.959-30.959-49.742-72.025-52.89-115.636c-3.116-43.173,9.184-86.064,34.635-120.772   l3.805-5.188L21.36,51.852c-8.417-8.417-8.417-22.112,0-30.529C25.437,17.245,30.858,15,36.625,15s11.188,2.245,15.265,6.322   l142.046,142.047l5.189-3.805c31.325-22.969,68.523-35.11,107.573-35.11c48.666,0,94.421,18.952,128.834,53.365   C506.573,248.86,506.573,364.452,435.532,435.493z"/>
	<path style="fill:#0F2639;" d="M422.024,191.327c-63.593-63.59-167.065-63.59-230.658,0   c-30.759,30.758-47.698,71.716-47.698,115.328c-0.001,43.612,16.939,84.571,47.697,115.33l10.606-10.607   c-27.925-27.925-43.304-65.116-43.304-104.723c0-39.605,15.379-76.796,43.305-104.721c57.745-57.744,151.701-57.744,209.445,0   c27.925,27.925,43.304,65.115,43.304,104.721c-0.001,39.605-15.379,76.796-43.305,104.721l10.607,10.607   c30.758-30.759,47.698-71.717,47.698-115.328C469.721,263.043,452.782,222.085,422.024,191.327z"/>
	<path style="fill:#0F2639;" d="M384.659,235.425c-11.539-11.539-26.88-17.894-43.2-17.894c-15.937,0-30.943,6.062-42.383,17.092   c-4.071-0.775-8.214-1.167-12.368-1.167c-17.561,0-34.067,6.836-46.48,19.248c-16.937,16.938-23.249,41.309-16.82,64.23   c-9.291,22.639-4.113,48.989,13.321,66.419c11.538,11.54,26.88,17.896,43.2,17.896c16.319,0,31.661-6.355,43.2-17.893   l61.529-61.529C408.479,298.005,408.48,259.246,384.659,235.425z M312.523,372.749c-8.705,8.706-20.281,13.5-32.593,13.5   c-12.313,0-23.888-4.795-32.594-13.502c-13.683-13.681-17.362-34.641-9.154-52.156l1.262-2.694l-0.928-2.826   c-6.01-18.317-1.29-38.15,12.319-51.76c9.58-9.579,22.319-14.855,35.873-14.855c4.339,0,8.664,0.553,12.853,1.643l4.154,1.08   l5.148-5.146c8.707-8.707,20.282-13.502,32.595-13.502c12.313,0,23.888,4.795,32.593,13.501c17.972,17.972,17.972,47.215,0,65.187   L312.523,372.749z"/>
	<path style="fill:#0F2639;" d="M369.246,440.907l6.322,13.602c10.994-5.109,21.43-11.472,31.016-18.908l-9.194-11.851   C388.691,430.497,379.222,436.27,369.246,440.907z"/>
	<path style="fill:#0F2639;" d="M286.727,262.259c-9.868,0-19.146,3.843-26.124,10.82c-6.977,6.979-10.821,16.256-10.821,26.124   c-0.001,9.869,3.843,19.147,10.821,26.124c6.978,6.977,16.255,10.819,26.122,10.819c9.868,0,19.146-3.843,26.124-10.82   c14.404-14.404,14.404-37.842-0.001-52.246C305.872,266.102,296.595,262.259,286.727,262.259z M302.243,314.719   c-4.145,4.145-9.656,6.428-15.518,6.428c-5.861,0-11.371-2.282-15.516-6.427c-4.145-4.145-6.427-9.654-6.427-15.517   c0-5.861,2.283-11.372,6.427-15.517c4.145-4.146,9.656-6.428,15.517-6.428c5.861,0,11.371,2.282,15.516,6.427   C310.798,292.242,310.799,306.164,302.243,314.719z"/>
</g>















</svg>