<?xml version="1.0" encoding="iso-8859-1"?>

<!DOCTYPE svg PUBLIC "-//W3C//DTD SVG 1.1//EN" "http://www.w3.org/Graphics/SVG/1.1/DTD/svg11.dtd">
<!-- Uploaded to: SVG Repo, www.svgrepo.com, Generator: SVG Repo Mixer Tools -->
<svg height="800px" width="800px" version="1.1" id="_x35_" xmlns="http://www.w3.org/2000/svg" xmlns:xlink="http://www.w3.org/1999/xlink" 
	 viewBox="0 0 512 512"  xml:space="preserve">
<g>
	<g>
		<path style="fill:#E5D688;" d="M470.904,285.48c0,1.789,0,3.579-0.075,5.368c-0.223,8.052-0.82,15.955-1.864,23.858H38.471
			c-1.044-7.903-1.64-15.806-1.864-23.858c-0.075-1.789-0.075-3.579-0.075-5.368c0-3.579,0.075-7.083,0.224-10.587
			c4.25-88.947,62.032-163.951,141.882-193.327c10.215-3.802,20.802-6.785,31.687-8.947c14.017-2.907,28.556-4.399,43.392-4.399
			c14.837,0,29.376,1.491,43.392,4.399c10.886,2.162,21.473,5.145,31.687,8.947c14.763,5.368,28.705,12.377,41.752,20.727
			c26.617,16.999,49.208,39.59,66.207,66.207c19.832,31.016,32.06,67.4,33.923,106.393
			C470.829,278.397,470.904,281.901,470.904,285.48z"/>
		<path style="opacity:0.07;fill:#303030;" d="M470.904,295.918c0,6.338-0.298,12.6-0.82,18.789
			c-0.223,2.982-0.522,5.89-0.895,8.723c-0.075,0.597-0.149,1.118-0.224,1.715H38.471c-0.075-0.596-0.149-1.118-0.224-1.715
			c-0.373-2.833-0.671-5.741-0.895-8.723c-0.522-6.188-0.82-12.451-0.82-18.789c0-1.715,0-3.355,0.075-5.07
			c0-1.789,0.075-3.653,0.149-5.443H470.68c0.075,1.789,0.149,3.653,0.149,5.443C470.904,292.563,470.904,294.203,470.904,295.918z"
			/>
		<g>
			<path style="fill:#E5D688;" d="M329.767,61.51c-3.131-32.209-28.854-58.005-61.137-61.137C266.468,0.149,264.156,0,261.92,0
				h-16.403c-37.651,0-68.22,30.643-68.22,68.22c0,4.548,0.447,9.021,1.342,13.346c6.188,31.24,33.775,54.874,66.878,54.874h16.403
				c33.103,0,60.69-23.635,66.878-54.874c0.895-4.324,1.342-8.798,1.342-13.346C330.139,65.983,329.991,63.672,329.767,61.51z
				 M261.92,103.71h-16.403c-18.117,0-33.029-13.57-35.191-31.091c-0.223-1.491-0.298-2.907-0.298-4.399
				c0-19.534,15.881-35.415,35.489-35.415h16.403c19.609,0,35.489,15.881,35.489,35.415c0,1.491-0.075,2.908-0.299,4.399
				C294.949,90.14,280.037,103.71,261.92,103.71z"/>
		</g>
		
			<ellipse transform="matrix(0.6477 0.7619 -0.7619 0.6477 173.1678 -61.0954)" style="opacity:0.2;fill:#FFFFFF;" cx="152.645" cy="156.694" rx="34.787" ry="53.204"/>
		<path style="fill:#F3E79A;" d="M507.437,340.056v4.846c0,14.017-11.408,25.424-25.35,25.424H25.349
			c-2.385,0-4.771-0.373-7.008-0.969c-8.276-2.46-14.837-8.947-17.297-17.297C0.373,349.823,0,347.363,0,344.902v-4.846
			c0-2.311,0.298-4.548,0.895-6.71c2.982-10.736,12.824-18.639,24.455-18.639h456.738c11.631,0,21.473,7.903,24.455,18.639
			C507.139,335.508,507.437,337.745,507.437,340.056z"/>
		<path style="opacity:0.1;fill:#FFFFFF;" d="M507.437,329.767v8.723c0-1.789-0.298-3.579-0.895-5.145
			c-2.088-5.741-7.68-9.916-14.166-9.916H15.061c-6.487,0-12.079,4.175-14.166,9.916C0.298,334.912,0,336.701,0,338.49v-8.723
			c0-8.276,6.785-15.061,15.061-15.061h477.315C500.652,314.707,507.437,321.491,507.437,329.767z"/>
	</g>
	<path style="opacity:0.05;fill:#040000;" d="M512,329.767c0-8.276-6.785-15.061-15.061-15.061H486.65h-12.004
		c0.522-6.188,0.82-12.451,0.82-18.789c0-1.715,0-3.355-0.075-5.07c0.075-1.789,0.075-3.579,0.075-5.368
		c0-3.579-0.075-7.083-0.223-10.587c-1.864-38.993-14.091-75.377-33.923-106.393c-16.999-26.617-39.59-49.208-66.207-66.207
		c-6.996-4.477-14.269-8.534-21.768-12.193L73.119,370.326H486.65c13.942,0,25.35-11.407,25.35-25.424v-4.846
		c0-2.311-0.298-4.548-0.895-6.71c0.597,1.566,0.895,3.355,0.895,5.145V329.767z"/>
</g>
</svg>