<?xml version="1.0" encoding="utf-8"?>
<!-- Generator: Adobe Illustrator 27.5.0, SVG Export Plug-In . SVG Version: 6.00 Build 0)  -->
<svg version="1.1" id="Layer_1" xmlns="http://www.w3.org/2000/svg" xmlns:xlink="http://www.w3.org/1999/xlink" x="0px" y="0px"
	 viewBox="0 0 343.276 166.921" style="enable-background:new 0 0 343.276 166.921;" xml:space="preserve">
<g>
	<g>
		<g>
			<g>
				<g>
					<path style="fill:#9F8F7C;" d="M134.292,82.553c0,0-13.633-0.31-20.139-6.507c-6.507-6.197-54.22-37.903-82.725-42.499
						C2.924,28.953,6.332,13.151,8.191,10.673s22.308-4.028,29.124-1.239c6.816,2.789,54.53,19.272,72.5,35.817
						c17.97,16.545,29.744,10.968,29.744,10.968L134.292,82.553z"/>
					<path style="fill:#6F5246;" d="M134.578,82.91l-0.294-0.007c-0.562-0.013-13.843-0.384-20.373-6.603
						c-5.769-5.494-53.272-37.688-82.539-42.407C15.187,31.284,9.511,25.092,7.6,20.357c-1.861-4.611-0.565-8.725,0.312-9.894
						c2.032-2.71,22.665-4.165,29.537-1.354c0.889,0.364,2.455,0.953,4.622,1.769c14.309,5.386,52.319,19.693,67.983,34.114
						c17.558,16.165,29.241,10.962,29.357,10.908l0.629-0.295L134.578,82.91z M25.532,8.264c-7.739,0-15.999,1.203-17.061,2.619
						c-0.893,1.191-1.876,5.116-0.222,9.212c1.844,4.568,7.372,10.551,23.235,13.108c29.405,4.74,77.117,37.073,82.91,42.591
						c5.81,5.534,17.604,6.306,19.613,6.398l5.083-25.415c-2.68,0.917-13.662,3.323-29.512-11.269
						C94.014,31.178,56.097,16.906,41.823,11.534c-2.173-0.818-3.743-1.409-4.641-1.776C34.577,8.692,30.147,8.264,25.532,8.264z"/>
				</g>
				<path style="opacity:0.47;fill:#764C4F;" d="M127.289,56.038c-1.923,1.084-3.828,2.194-5.32,3.86
					c-0.92,1.028-1.538,2.199-2.177,3.408c-0.41,0.774-0.852,1.608-1.593,2.116c-0.788,0.54-1.781,0.495-2.672,0.284
					c-1.533-0.363-3.016-1.112-4.435-1.781c-5.296-2.496-10.213-5.715-15.438-8.345c2.076,1.645,4.193,3.236,6.334,4.795
					c2.56,1.863,5.153,3.682,7.748,5.496c1.298,0.907,2.597,1.813,3.893,2.723c1.043,0.732,2.116,1.392,3.196,2.067
					c0.939,0.587,1.874,1.236,2.561,2.117c0.735,0.941,0.956,2.029,1.176,3.176c0.225,1.173,0.419,2.364,0.833,3.49
					c0.113,0.306,0.245,0.602,0.396,0.885c6.116,2.078,12.501,2.224,12.501,2.224l5.267-26.336
					C139.559,56.218,135.023,58.361,127.289,56.038z"/>
				<path style="opacity:0.47;fill:#764C4F;" d="M122.054,70.47c-4.833-1.694-11.606-6.846-16.175-9.156
					c-4.943-2.5-9.624-5.483-14.239-8.538c-9.275-6.141-18.504-12.281-28.447-17.312c-5.068-2.565-10.278-4.86-15.645-6.726
					c-5.43-1.888-10.935-3.45-16.432-5.122c-5.055-1.538-10.109-3.307-14.741-5.884c-3.122-1.737-5.97-3.87-8.645-6.217
					c-1.74,4.101-2.519,17.806,23.697,22.033c28.504,4.595,76.218,36.302,82.725,42.499c6.506,6.197,20.139,6.507,20.139,6.507
					l2.275-11.374C130.913,70.677,127.362,72.33,122.054,70.47z"/>
				<g>
					<defs>
						<path id="SVGID_1_" d="M134.292,82.553c0,0-13.633-0.31-20.139-6.507c-6.507-6.197-54.22-37.903-82.725-42.499
							C2.924,28.953,6.332,13.151,8.191,10.673s22.308-4.028,29.124-1.239c6.816,2.789,54.53,19.272,72.5,35.817
							c17.97,16.545,29.744,10.968,29.744,10.968L134.292,82.553z"/>
					</defs>
					<clipPath id="SVGID_00000049905917374892799230000013068515384303641761_">
						<use xlink:href="#SVGID_1_"  style="overflow:visible;"/>
					</clipPath>
					<g style="opacity:0.59;clip-path:url(#SVGID_00000049905917374892799230000013068515384303641761_);">
						<path style="fill:#A47462;" d="M12.925,23.966c-0.41-1.181-0.717-2.357-0.988-3.574c-0.243-1.085-0.508-2.226-1.083-3.19
							c-0.367-0.614-1.026-1.256-1.808-1.114c-0.566,0.103-0.916,0.591-1.119,1.092c-0.284,0.702-0.356,1.498-0.396,2.247
							c-0.052,0.969-0.02,1.943,0.052,2.911c0.126,1.7,0.27,3.506,0.744,5.153c0.056,0.195,0.397,0.021,0.35-0.153
							c-0.362-1.33-0.47-2.762-0.572-4.131c-0.128-1.725-0.249-3.572,0.123-5.276c0.088-0.402,0.246-1.111,0.642-1.299
							c0.605-0.287,1.228,0.548,1.478,0.98c0.541,0.935,0.784,2.04,1.016,3.085c0.249,1.125,0.528,2.213,0.899,3.307
							c1.186,3.493,2.873,6.751,5.045,9.733c0.125,0.172,0.475-0.072,0.358-0.251C15.725,30.517,14.089,27.319,12.925,23.966z"/>
						<path style="fill:#A47462;" d="M11.529,25.888c-0.681-1.962-1.234-3.968-1.805-5.964c-0.09-0.317-0.616-0.063-0.608,0.197
							c0.071,2.317,0.266,4.588,0.698,6.864c0.018,0.093,0.175,0.01,0.163-0.071c-0.224-1.51-0.259-3.047-0.257-4.581
							c0.378,1.332,0.777,2.658,1.243,3.964c0.69,1.935,1.492,3.959,2.762,5.595c0.147,0.189,0.514-0.074,0.399-0.28
							C13.09,29.77,12.222,27.884,11.529,25.888z"/>
						<path style="fill:#A47462;" d="M21.41,35.116c0.035-0.06,0.044-0.125-0.004-0.175c-1.462-1.521-2.243-3.476-3.128-5.353
							c-0.966-2.049-2.273-3.905-3.207-5.969c-0.925-2.044-1.662-4.169-2.533-6.236c-0.034-0.082-0.07-0.162-0.105-0.243
							c-0.231-0.704-0.432-1.42-0.678-2.119c-0.353-1.004-0.762-2.108-1.509-2.893c-0.622-0.653-1.455-0.835-2.266-0.405
							c-0.865,0.458-1.386,1.372-1.744,2.247c-0.944,2.309-1.123,4.946-1.048,7.415c0.002,0.075,0.122,0.035,0.121-0.026
							c-0.017-0.945,0.081-1.887,0.214-2.821c0.173-1.219,0.375-2.435,0.757-3.609c0.124-0.381,0.269-0.786,0.449-1.175
							c0.399-0.51,0.917-1.161,1.514-1.341C9,12.186,9.646,13.224,9.94,13.779c0.387,0.73,0.601,1.537,0.898,2.304
							c0.357,0.922,0.792,1.816,1.162,2.734c0.754,1.869,1.458,3.755,2.367,5.557c0.332,0.657,0.71,1.285,1.099,1.908
							c0.232,0.52,0.462,1.041,0.708,1.555c1.632,3.394,3.641,6.764,6.445,9.323c0.119,0.109,0.411-0.124,0.295-0.253
							C22.391,36.322,21.895,35.722,21.41,35.116z"/>
						<path style="fill:#A47462;" d="M26.665,36.074c-0.482-0.442-0.94-0.907-1.382-1.389c-0.388-0.464-0.783-0.923-1.16-1.39
							c-0.138-0.171-0.28-0.338-0.42-0.507c-0.741-0.962-1.437-1.959-2.09-2.974c-1.535-2.384-2.763-4.925-3.985-7.479
							c-0.111-0.232-0.219-0.465-0.329-0.696c-0.674-1.519-1.347-3.038-2.025-4.556c-0.971-2.175-1.988-4.318-2.743-6.58
							c-0.385-1.152-0.745-2.314-1.232-3.429c-0.241-0.551-0.506-1.11-0.834-1.615c-0.159-0.244-0.328-0.48-0.508-0.71
							C9.866,4.634,9.773,4.52,9.679,4.407c-0.08-0.095-0.286-0.24-0.345-0.339C9.287,3.972,9.148,4.092,9.138,4.154
							C9.109,4.336,9.244,4.505,9.323,4.656C9.45,4.901,9.566,5.153,9.678,5.405C9.736,5.536,9.787,5.67,9.844,5.802
							C9.729,5.555,9.61,5.309,9.495,5.061C9.467,4.999,9.332,5.078,9.359,5.138c0.59,1.315,1.163,2.639,1.735,3.963
							c0.122,0.359,0.243,0.719,0.362,1.079c0.351,1.062,0.698,2.127,1.13,3.16c0.469,1.121,1.028,2.206,1.555,3.3
							c1.128,2.344,2.205,4.71,3.255,7.089c0.995,2.256,2.052,4.481,3.448,6.522c0.771,1.127,1.662,2.142,2.524,3.196
							c0.809,0.989,1.579,2.142,2.639,2.881c0.042,0.029,0.096,0.031,0.15,0.017c1.817,1.705,3.793,3.218,5.433,5.115
							c0.114,0.132,0.392-0.057,0.296-0.207C30.555,39.193,28.449,37.711,26.665,36.074z"/>
						<path style="fill:#A47462;" d="M31.916,34.952c-2.312-1.719-4.292-3.907-6.089-6.154c-0.549-0.786-1.147-1.54-1.744-2.294
							c-3.149-4.365-5.67-9.101-8.047-13.936c-0.141-0.367-0.283-0.733-0.447-1.091c-0.418-0.918-0.962-1.763-1.452-2.642
							c-0.564-1.012-1.014-2.035-1.342-3.148c-0.307-1.04-0.629-1.999-1.26-2.891c-0.057-0.08-0.227,0.021-0.193,0.109
							c0.115,0.293,0.204,0.598,0.283,0.905c-0.101-0.296-0.203-0.592-0.285-0.895c-0.016-0.058-0.115-0.006-0.103,0.045
							c0.174,0.78,0.417,1.535,0.7,2.273c0.041,0.205,0.081,0.41,0.126,0.612c0.207,0.937,0.472,1.825,0.879,2.697
							c0.42,0.901,0.961,1.735,1.427,2.612c0.516,0.969,0.881,2.007,1.235,3.043c0.323,0.945,0.633,1.898,1.054,2.806
							c0.425,0.916,0.964,1.771,1.523,2.609c1.143,1.712,2.243,3.46,3.458,5.121c1.427,1.951,3.073,3.769,4.652,5.596
							c0.039,0.045,0.092,0.058,0.147,0.052c1.256,1.477,2.593,2.887,4.063,4.138c2.415,2.058,5.343,3.442,7.597,5.701
							c0.119,0.119,0.404-0.069,0.291-0.204C36.611,37.892,34.109,36.584,31.916,34.952z"/>
						<path style="fill:#A47462;" d="M22.458,16.222c3.696,2.617,7.833,4.541,11.957,6.372c0.865,0.384,1.754,0.754,2.68,0.964
							c0.66,0.149,1.443,0.257,2.034-0.152c0.096-0.067,0.171-0.196,0.106-0.308c-0.82-1.409-2.146-2.456-3.379-3.485
							c-1.454-1.213-2.791-2.556-4.162-3.861c-2.921-2.78-5.768-5.648-8.793-8.316c-1.637-1.443-3.35-2.959-5.238-4.062
							c-0.202-0.118-0.567,0.189-0.353,0.37c1.482,1.252,3.062,2.381,4.529,3.656c1.447,1.257,2.857,2.554,4.245,3.875
							c1.496,1.425,2.994,2.848,4.503,4.258c1.415,1.321,2.786,2.712,4.269,3.956c1.345,1.128,2.884,2.194,3.82,3.713
							c-0.508,0.169-1.191-0.024-1.653-0.15c-0.789-0.215-1.55-0.528-2.297-0.857c-1.728-0.763-3.46-1.538-5.149-2.383
							c-4.259-2.132-8.303-4.647-11.602-8.121c-1.743-1.836-3.249-3.877-4.582-6.026c-0.057-0.091-0.227,0.032-0.179,0.126
							C15.35,9.935,18.663,13.535,22.458,16.222z"/>
						<path style="fill:#A47462;" d="M20.542,11.918c1.942,2.01,4,3.943,6.382,5.427c1.307,0.815,2.706,1.493,4.18,1.944
							c0.2,0.061,0.514-0.189,0.384-0.4c-3.033-4.901-7.883-8.137-12.196-11.801c-1.213-1.03-2.326-2.173-3.545-3.193
							c-0.113-0.095-0.358,0.101-0.266,0.229c0.786,1.097,1.85,2.005,2.864,2.887c1.074,0.934,2.181,1.828,3.289,2.72
							c2.237,1.802,4.5,3.6,6.47,5.7c0.902,0.961,1.736,1.989,2.459,3.092c-4.977-1.916-8.686-5.958-12.302-9.743
							c-1.028-1.075-2.063-2.149-3.173-3.14c-0.073-0.065-0.252,0.077-0.18,0.155C16.782,7.84,18.615,9.923,20.542,11.918z"/>
						<path style="fill:#A47462;" d="M29.327,8.199c2.199,1.679,4.361,3.423,6.608,5.036c2.587,1.857,5.351,3.254,8.387,4.218
							c2.993,0.951,6.094,1.525,9.215,1.847c3.547,0.366,7.147,0.501,10.712,0.431c0.07-0.001,0.14-0.125,0.043-0.127
							c-6.207-0.13-12.425-0.477-18.442-2.14c-3.041-0.841-5.917-2.045-8.548-3.797c-2.346-1.562-4.499-3.392-6.78-5.043
							c-1.119-0.81-2.234-1.634-3.255-2.568c-0.953-0.873-1.887-1.889-2.261-3.157c-0.028-0.096-0.181-0.009-0.167,0.074
							c0.181,1.061,0.917,1.97,1.633,2.733C27.338,6.631,28.323,7.432,29.327,8.199z"/>
						<path style="fill:#A47462;" d="M41.047,33.526c-2.865-2.667-6.194-4.751-9.168-7.284c-1.251-1.066-2.525-2.503-4.235-2.752
							c-0.132-0.019-0.26,0.108-0.307,0.215c-0.34,0.781,0.122,1.639,0.557,2.28c0.601,0.883,1.368,1.646,2.129,2.39
							c1.804,1.763,3.629,3.55,5.3,5.44c1.034,1.169,2.048,2.439,2.723,3.856c0.021,0.044,0.107-0.011,0.094-0.053
							c-0.82-2.628-2.959-4.703-4.842-6.617c-0.782-0.795-1.539-1.616-2.333-2.399c-0.716-0.707-1.444-1.402-2.086-2.179
							c-0.498-0.602-1.299-1.568-1.149-2.437c1.448,0.326,2.626,1.628,3.7,2.555c1.469,1.267,3.066,2.402,4.611,3.574
							c1.479,1.122,2.957,2.23,4.327,3.485c1.29,1.181,2.519,2.426,3.792,3.625c1.435,1.353,2.92,2.669,4.63,3.665
							c0.167,0.097,0.477-0.176,0.29-0.304C46.107,38.563,43.664,35.962,41.047,33.526z"/>
						<path style="fill:#A47462;" d="M41.076,35.613c-0.961-1.275-1.997-2.513-3.36-3.374c-0.164-0.103-0.486,0.124-0.361,0.31
							c0.845,1.26,1.52,2.723,1.896,4.194c0.023,0.091,0.169,0.008,0.158-0.069c-0.178-1.187-0.53-2.308-1.062-3.363
							c2.111,1.844,3.32,4.531,5.491,6.332c0.129,0.107,0.434-0.136,0.307-0.264C42.996,38.229,42.052,36.907,41.076,35.613z"/>
						<path style="fill:#A47462;" d="M76.64,53.533c-2.013-1.734-4.005-3.492-6.005-5.241c-1.966-1.719-3.919-3.472-5.961-5.101
							c-1.027-0.819-2.13-1.526-3.268-2.176c-1.232-0.759-2.525-1.423-3.844-1.988c-0.073-0.031-0.148-0.06-0.222-0.09
							c-1.601-0.759-3.209-1.505-4.76-2.363c-2.114-1.169-3.985-2.614-5.82-4.175c-0.912-0.776-1.825-1.552-2.794-2.256
							c-1.033-0.751-2.136-1.38-3.271-1.962c-1.121-0.574-2.26-1.114-3.348-1.748c-1.012-0.59-1.96-1.28-2.893-1.987
							c-1.009-0.765-2.004-1.552-3.059-2.255c-0.986-0.657-2.014-1.164-3.09-1.649c-0.847-0.382-1.685-0.791-2.569-1.083
							c-0.743-0.246-1.651-0.489-2.402-0.146c-0.11,0.05-0.21,0.153-0.221,0.278c-0.121,1.344,0.649,2.666,1.241,3.819
							c0.04,0.078,0.079,0.156,0.119,0.234c0.028,0.062,0.049,0.127,0.078,0.189c0.573,1.226,1.39,2.395,2.183,3.488
							c0.847,1.167,1.837,2.246,2.786,3.331c0.949,1.086,1.869,2.194,2.891,3.213c0.314,0.313,0.641,0.609,0.964,0.912
							c0.035,0.04,0.067,0.082,0.102,0.121c1.182,1.357,2.438,2.715,3.926,3.741c0.078,0.054,0.214-0.071,0.137-0.144
							c-0.472-0.449-0.919-0.918-1.363-1.389c0.064-0.056,0.102-0.136,0.05-0.193c-1.909-2.111-3.784-4.233-5.571-6.449
							c-1.776-2.202-3.716-4.284-5.068-6.795c-0.362-0.672-0.63-1.393-0.901-2.105c-0.239-0.629-0.471-1.39-0.969-1.863
							c-0.012-0.012-0.026-0.016-0.039-0.024c0.665-0.161,1.492,0.153,2.085,0.368c0.769,0.278,1.505,0.631,2.25,0.965
							c0.95,0.425,1.864,0.87,2.74,1.438c0.94,0.609,1.831,1.292,2.72,1.972c0.079,0.061,0.159,0.12,0.239,0.18
							c0.116,0.167,0.23,0.335,0.354,0.495c0.359,0.461,0.717,0.927,1.125,1.346c0.789,0.81,1.731,1.332,2.697,1.894
							c0.472,0.275,0.92,0.571,1.349,0.909c0.483,0.382,1.008,0.678,1.534,0.995c1.02,0.615,1.876,1.461,2.86,2.131
							c1.05,0.714,2.146,1.333,3.172,2.088c0.983,0.724,1.952,1.465,2.971,2.138c1.914,1.264,4.106,1.905,6.242,2.681
							c2.659,0.966,5.096,2.329,7.416,3.936c0.066,0.046,0.147,0.047,0.226,0.023c1.885,1.388,3.631,2.998,5.393,4.53
							c2.196,1.908,4.374,3.836,6.575,5.738c2.2,1.901,4.4,3.822,6.738,5.554c0.205,0.152,0.597-0.205,0.375-0.393
							C80.714,56.945,78.653,55.268,76.64,53.533z"/>
						<path style="fill:#A47462;" d="M86.467,57.072c-1.972-1.873-3.612-4.017-5.436-6.026c-1.907-2.1-3.937-4.087-6.043-5.987
							c-4.269-3.851-8.802-7.386-13.648-10.483c-2.44-1.559-4.94-3.021-7.469-4.431c-1.152-0.642-2.263-1.348-3.394-2.025
							c-1.476-0.883-2.973-1.741-4.538-2.455c-1.002-0.457-2.415-1.17-3.555-0.858c-0.209,0.057-0.392,0.162-0.549,0.312
							c-0.082,0.078-0.108,0.192-0.058,0.291c0.299,0.592,0.722,1.115,1.2,1.589c0.193,0.256,0.389,0.507,0.562,0.76
							c0.567,0.828,1.29,1.544,2.124,2.102c1.041,0.696,2.169,1.256,3.231,1.919c1.002,0.625,2.029,1.185,3.091,1.701
							c2.15,1.042,4.306,2.059,6.394,3.224c2.165,1.207,4.043,2.816,6,4.323c1.082,0.833,2.139,1.692,3.184,2.57
							c1.016,0.853,2.1,1.805,3.293,2.403c1.339,1.25,2.664,2.516,3.984,3.789c1.52,1.466,3.045,2.926,4.555,4.402
							c1.459,1.426,2.966,2.787,4.63,3.973c0.08,0.057,0.235-0.086,0.145-0.152c-1.482-1.085-2.758-2.423-4.034-3.738
							c-1.263-1.302-2.528-2.597-3.814-3.877c-2.733-2.718-5.48-5.412-8.362-7.974c-1.473-1.309-2.973-2.586-4.506-3.823
							c-1.46-1.177-2.934-2.368-4.515-3.381c-2.998-1.921-6.347-3.157-9.54-4.699c-1.358-0.656-2.677-1.41-3.917-2.27
							c-0.653-0.452-1.33-0.951-1.927-1.522c-0.044-0.048-0.084-0.098-0.129-0.145c-0.095-0.101-0.197-0.197-0.299-0.294
							c-0.285-0.316-0.543-0.651-0.754-1.014c0.283-0.106,0.691-0.036,0.948,0.017c0.663,0.135,1.303,0.386,1.923,0.654
							c1.567,0.677,3.058,1.534,4.523,2.405c1.036,0.616,2.047,1.281,3.095,1.876c2.381,1.352,4.761,2.697,7.082,4.151
							c4.761,2.982,9.222,6.365,13.442,10.072c2.12,1.862,4.172,3.804,6.108,5.858c1.846,1.959,3.46,4.125,5.34,6.05
							c3.489,3.571,7.668,6.468,10.802,10.385c0.373,0.466,0.735,0.942,1.078,1.431c0.165,0.235,0.641-0.098,0.484-0.339
							C94.414,63.553,90.123,60.544,86.467,57.072z"/>
						<path style="fill:#A47462;" d="M90.478,58.285c-2.855-3.578-6.2-6.687-9.619-9.716c-3.345-2.964-6.685-5.945-10.191-8.719
							c-1.738-1.375-3.52-2.699-5.365-3.928c-1.898-1.264-3.907-2.314-5.852-3.497c-1.998-1.215-3.878-2.611-5.832-3.895
							c-1.562-1.026-3.183-1.96-4.749-2.981c-0.575-0.375-1.16-0.757-1.669-1.22c-0.208-0.19-0.613-0.547-0.393-0.847
							c0.16-0.218,0.608-0.254,0.861-0.278c0.502-0.049,1.015-0.017,1.517,0.027c2.221,0.198,4.392,0.783,6.55,1.316
							c3.764,0.931,7.723,0.696,11.479,1.704c0.378,0.101,0.749,0.227,1.121,0.349c0.429,0.148,0.857,0.298,1.285,0.449
							c1.289,0.482,2.564,1.013,3.863,1.448c2.093,0.702,4.231,1.27,6.42,1.577c2.378,0.333,4.799,0.303,7.191,0.49
							c2.432,0.19,4.857,0.456,7.28,0.729c1.193,0.135,2.386,0.271,3.579,0.401c0.285,0.031,0.547-0.461,0.172-0.503
							c-3.072-0.339-6.142-0.715-9.22-0.997c0.14-0.147,0.19-0.35-0.046-0.456c-0.784-0.351-1.795-0.386-2.643-0.449
							c-0.904-0.068-1.814-0.065-2.719-0.074c-1.888-0.02-3.695-0.386-5.516-0.862c-0.892-0.233-1.779-0.484-2.676-0.696
							c-0.877-0.208-1.769-0.334-2.645-0.546c-1.703-0.412-3.346-1.031-5.031-1.505c-1.344-0.378-2.699-0.593-4.066-0.522
							c-2.343-0.29-4.714-0.439-7.04-0.896c-2.046-0.402-4.035-1.014-6.105-1.316c-1.013-0.148-2.147-0.322-3.159-0.075
							c-0.618,0.151-1.365,0.71-0.949,1.419c0.308,0.526,0.923,0.919,1.408,1.261c0.498,0.351,1.018,0.667,1.521,1.01
							c0.936,0.639,1.909,1.207,2.879,1.791c1.021,0.615,2.005,1.291,2.987,1.966c1.975,1.357,3.962,2.636,6.052,3.808
							c1.997,1.119,3.92,2.367,5.779,3.704c3.659,2.631,7.033,5.627,10.411,8.601c3.641,3.205,7.35,6.372,10.624,9.962
							c2.866,3.142,5.204,6.731,8.255,9.71c0.745,0.728,1.529,1.418,2.349,2.061c0.089,0.07,0.267-0.093,0.167-0.175
							C95.464,65.221,93.104,61.575,90.478,58.285z"/>
						<path style="fill:#A47462;" d="M99.937,64.349c-1.278-1.469-2.471-3.005-3.729-4.49c-1.26-1.486-2.594-2.907-3.947-4.308
							c-2.368-2.451-4.768-4.864-7.194-7.255c-0.004-0.007-0.004-0.014-0.009-0.02c-0.791-0.964-1.744-1.821-2.644-2.683
							c-0.177-0.17-0.362-0.33-0.542-0.497c-0.711-0.726-1.426-1.448-2.168-2.14c-1.34-1.25-2.793-2.372-4.286-3.431
							c-0.02-0.014-0.042-0.028-0.062-0.042c-0.403-0.387-0.803-0.777-1.207-1.164c-1.728-1.656-3.519-3.28-5.593-4.496
							c-2.24-1.314-4.701-2.195-6.987-3.423c-1.035-0.556-2.09-1.026-3.161-1.501c-0.476-0.211-0.951-0.431-1.385-0.72
							c-0.335-0.224-0.732-0.5-0.896-0.885c0.212-0.008,0.425-0.008,0.637,0.002c1.48,0.069,2.971,0.28,4.432,0.51
							c4.042,0.637,8.001,1.702,11.939,2.796c3.936,1.094,7.863,2.217,11.914,2.805c2.014,0.292,4.031,0.42,6.062,0.511
							c1.057,0.048,2.116,0.099,3.168,0.22c0.924,0.106,1.824,0.35,2.743,0.487c0.807,0.12,1.618,0.147,2.406-0.093
							c0.171-0.052,0.252-0.36,0.019-0.295c-0.977,0.274-1.978,0.115-2.952-0.093c-0.891-0.19-1.768-0.379-2.675-0.478
							c-2.123-0.231-4.263-0.223-6.386-0.451c-4.159-0.447-8.199-1.464-12.219-2.587c-4.046-1.13-8.094-2.285-12.23-3.045
							c-1.705-0.314-3.422-0.55-5.148-0.711c-0.531-0.049-1.069-0.096-1.603-0.07c-0.352,0.017-0.783,0.045-1.054,0.301
							c-0.801,0.757,1.262,1.809,1.678,2.062c1.672,1.017,3.445,1.851,5.201,2.709c1.766,0.863,3.518,1.758,5.15,2.859
							c1.514,1.021,3.051,2.006,4.58,3.004c0.294,0.192,0.586,0.386,0.878,0.579c1.785,1.597,3.537,3.274,5.552,4.583
							c0.853,0.554,1.653,1.15,2.422,1.795c2.875,2.974,5.893,5.804,8.765,8.782c1.372,1.422,2.757,2.831,4.101,4.279
							c1.357,1.462,2.625,2.987,3.882,4.535c2.497,3.074,5.267,5.917,7.711,9.036c0.581,0.741,1.148,1.494,1.711,2.249
							c0.155,0.207,0.573-0.086,0.435-0.305C105.189,70.029,102.447,67.236,99.937,64.349z M55.559,27.361
							c-0.005,0.01-0.01,0.019-0.014,0.029c0-0.004-0.006-0.009-0.006-0.013c0-0.004-0.001-0.004-0.001-0.007
							C55.544,27.366,55.553,27.365,55.559,27.361z"/>
						<path style="fill:#A47462;" d="M108.82,73.094c0.009-0.046,0.009-0.093-0.015-0.14c-0.536-1.026-1.259-1.945-1.897-2.908
							c-0.657-0.992-1.205-2.043-1.791-3.077c-1.178-2.079-2.416-4.106-3.825-6.038c-1.386-1.901-2.898-3.712-4.471-5.461
							c-1.522-1.692-2.912-3.566-4.705-4.988c-1.04-0.825-2.212-1.468-3.321-2.193c-0.834-0.545-1.898-1.178-2.421-2.049
							c-0.044-0.074-0.166-0.022-0.209,0.05c-1.054-0.982-2.11-1.961-3.181-2.925c-2.674-2.409-5.438-4.679-8.275-6.894
							c-0.978-0.763-2.042-1.335-3.102-1.972c-0.82-0.493-2.124-1.175-2.326-2.216c-0.141-0.724,1.011-0.452,1.418-0.377
							c0.828,0.155,1.635,0.417,2.43,0.691c2.934,1.01,5.869,2.171,8.95,2.649c3.585,0.556,7.243,0.143,10.827,0.702
							c1.816,0.283,3.58,0.844,5.334,1.378c0.863,0.263,1.725,0.549,2.604,0.757c0.843,0.199,1.702,0.315,2.562,0.413
							c0.873,0.1,1.749,0.181,2.621,0.284c0.196,0.023,0.462-0.364,0.198-0.413c-1.825-0.343-3.696-0.365-5.496-0.85
							c-1.808-0.487-3.577-1.108-5.391-1.574c-3.641-0.937-7.344-0.684-11.057-0.948c-3.647-0.259-7.018-1.537-10.448-2.705
							c-0.744-0.253-1.485-0.513-2.248-0.702c-0.685-0.17-1.584-0.411-2.272-0.13c-0.736,0.3-0.654,1.086-0.293,1.664
							c0.603,0.967,1.806,1.578,2.759,2.132c0.534,0.31,1.078,0.607,1.596,0.946c0.645,0.421,1.233,0.936,1.838,1.411
							c1.436,1.129,2.869,2.262,4.259,3.448c2.848,2.43,5.594,4.993,8.303,7.575c2.729,2.601,5.392,5.271,7.975,8.018
							c1.291,1.373,2.571,2.756,3.814,4.172c0.541,0.617,1.09,1.235,1.622,1.868c0.913,1.304,1.787,2.634,2.632,3.984
							c0.72,1.15,1.367,2.35,2.132,3.471c0.737,1.082,1.528,2.154,2.401,3.13c0.09,0.101,0.234,0.083,0.34,0.009
							c0.144,0.125,0.285,0.254,0.433,0.373c0.079,0.063,0.239-0.084,0.149-0.156C109.111,73.374,108.969,73.231,108.82,73.094z"/>
						<path style="fill:#A47462;" d="M105.096,39.989c-0.087-0.081-0.185-0.15-0.28-0.222c-0.01-0.041-0.04-0.069-0.087-0.069
							c-1.072-0.764-2.57-1.035-3.825-1.224c-1.625-0.244-3.273-0.287-4.912-0.343c-1.667-0.057-3.299-0.212-4.956-0.39
							c-1.958-0.209-3.923-0.299-5.866-0.634c-1.432-0.246-3.246-0.647-4.56,0.187c-0.114,0.072-0.19,0.225-0.12,0.351
							c0.932,1.663,2.988,2.581,4.6,3.434c2.236,1.184,4.59,2.05,7.052,2.632c2.622,0.62,5.306,0.965,7.968,1.366
							c2.711,0.408,5.414,0.851,8.081,1.491c2.932,0.704,5.835,1.581,8.832,1.975c0.203,0.027,0.47-0.376,0.203-0.422
							c-2.652-0.459-5.247-1.147-7.856-1.797c-2.632-0.656-5.289-1.146-7.97-1.559c-5.137-0.79-10.413-1.335-15.126-3.693
							c-0.991-0.496-1.982-1.015-2.923-1.601c-0.826-0.514-1.671-1.117-2.211-1.943c0.541-0.222,1.179-0.219,1.745-0.183
							c0.716,0.046,1.423,0.175,2.129,0.301c1.79,0.32,3.601,0.422,5.408,0.595c1.623,0.156,3.221,0.35,4.853,0.407
							c1.576,0.055,3.155,0.085,4.724,0.258c0.886,0.098,1.761,0.24,2.622,0.471c0.626,0.168,1.221,0.406,1.82,0.638
							c0.017,0.035,0.049,0.061,0.087,0.083c-2.156,0.039-4.31,0.026-6.436-0.303c-2.122-0.328-4.249-0.837-6.41-0.784
							c-0.844,0.021-1.95,0.101-2.483,0.859c-0.048,0.068-0.041,0.154,0.021,0.207c1.249,1.063,2.934,1.331,4.5,1.594
							c1.998,0.336,3.976,0.799,5.963,1.194c1.784,0.354,3.567,0.704,5.342,1.104c1.599,0.361,3.206,0.708,4.837,0.891
							c1.632,0.183,3.408,0.245,4.953-0.401c0.227-0.095,0.187-0.423-0.081-0.319c-1.396,0.542-2.947,0.52-4.415,0.378
							c-1.628-0.157-3.232-0.5-4.826-0.857c-1.659-0.371-3.322-0.708-4.99-1.037c-1.976-0.39-3.944-0.849-5.927-1.2
							c-1.682-0.297-3.543-0.473-4.927-1.568c0.511-0.518,1.601-0.489,2.238-0.485c1.149,0.007,2.297,0.158,3.43,0.336
							c0.892,0.14,1.778,0.317,2.671,0.45c0.899,0.134,1.806,0.209,2.715,0.248c-0.164,0.009-0.327,0.019-0.491,0.038
							c-0.109,0.012-0.23,0.154-0.165,0.261c0.424,0.694,1.315,0.993,2.055,1.201c0.914,0.258,1.857,0.391,2.794,0.533
							c2.593,0.394,5.224,0.298,7.785,0.904c0.138,0.033,0.335-0.179,0.16-0.257c-1.197-0.534-2.599-0.565-3.888-0.625
							c-1.239-0.058-2.454-0.136-3.681-0.323c-0.889-0.135-1.781-0.252-2.655-0.467c-0.694-0.171-1.568-0.397-2.079-0.953
							c1.507-0.126,3.023,0.132,4.521,0.268c1.495,0.135,3.151-0.075,4.543,0.589c0.073,0.035,0.206-0.083,0.123-0.129
							c-1.354-0.735-2.952-0.56-4.434-0.703c-0.941-0.091-1.882-0.231-2.826-0.306c0.266,0,0.531,0.001,0.796-0.003
							c2.126-0.031,4.248-0.19,6.373-0.234c0.092-0.002,0.184-0.165,0.057-0.167c-1.516-0.027-3.042,0.021-4.569,0.054
							C105.131,40.055,105.13,40.02,105.096,39.989z"/>
						<path style="fill:#A47462;" d="M109.395,48.366c-2.354-0.523-4.634-1.332-6.99-1.848c-2.408-0.528-4.878-0.697-7.296-1.178
							c-1.193-0.237-2.329-0.616-3.487-0.981c-0.987-0.311-2.131-0.721-3.175-0.529c-0.113,0.021-0.315,0.289-0.11,0.32
							c0.982,0.146,1.921,0.306,2.873,0.605c0.985,0.309,1.953,0.664,2.962,0.89c2.385,0.535,4.83,0.709,7.229,1.163
							c2.347,0.444,4.609,1.231,6.925,1.804c2.29,0.567,4.645,0.806,6.978,1.122c2.672,0.362,5.367,0.76,7.927,1.635
							c0.103,0.035,0.249-0.143,0.119-0.192c-2.228-0.832-4.546-1.338-6.893-1.696C114.106,49.12,111.722,48.884,109.395,48.366z"/>
						<path style="fill:#A47462;" d="M116.586,52.964c-1.355-0.38-2.677-0.85-4.044-1.194c-5.479-1.381-11.152-2.016-16.562-3.672
							c-2.841-0.869-5.433-2.379-8.28-3.237c-0.064-0.019-0.153,0.087-0.073,0.118c2.407,0.929,4.616,2.297,7.012,3.255
							c2.617,1.046,5.454,1.606,8.206,2.172c2.772,0.571,5.557,1.082,8.328,1.658c1.379,0.287,2.752,0.61,4.102,1.012
							c1.299,0.387,2.584,0.69,3.933,0.841c1.54,0.173,3.09,0.207,4.636,0.293c1.621,0.09,3.193,0.323,4.79,0.601
							c0.135,0.024,0.35-0.194,0.163-0.261c-1.245-0.448-2.619-0.567-3.93-0.669c-1.35-0.105-2.704-0.143-4.054-0.244
							C119.388,53.529,117.964,53.35,116.586,52.964z"/>
						<path style="fill:#A47462;" d="M115.403,55.045c-1.499-0.096-2.99-0.282-4.473-0.52c-2.831-0.454-5.69-0.983-8.458-1.741
							c-2.91-0.797-5.897-1.875-8.41-3.578c-0.055-0.037-0.158,0.06-0.097,0.101c1.12,0.759,2.229,1.483,3.442,2.09
							c1.146,0.573,2.344,1.048,3.556,1.462c2.661,0.907,5.451,1.468,8.208,1.996c2.914,0.559,5.836,0.928,8.806,0.942
							c3.071,0.014,6.103,0.283,9.162,0.508c0.842,0.062,1.686,0.116,2.529,0.166c0.829,0.049,1.66,0.066,2.476,0.233
							c1.482,0.304,2.869,0.931,4.337,1.289c0.231,0.056,0.569-0.328,0.269-0.431c-1.225-0.423-2.407-0.967-3.655-1.323
							c-1.342-0.382-2.743-0.392-4.125-0.493c-3.04-0.223-6.061-0.567-9.112-0.622C118.372,55.098,116.887,55.14,115.403,55.045z"/>
						<path style="fill:#A47462;" d="M104.21,60.161c-0.568-0.668-1.157-1.32-1.763-1.954c-0.588-0.615-1.24-1.247-1.606-2.029
							c-0.042-0.089-0.079-0.183-0.109-0.28c0.002-0.008,0.007-0.017,0.007-0.025c0.016-0.631,0.613-0.563,1.137-0.487
							c0.646,0.094,1.294,0.298,1.904,0.526c0.757,0.282,1.456,0.689,2.254,1.064c1.023,0.481,2.066,0.925,3.168,1.191
							c2.676,0.647,5.546,0.311,8.268,0.259c2.784-0.053,5.586,0.159,8.349,0.497c1.518,0.186,2.993,0.486,4.436,0.992
							c1.291,0.453,2.605,1.028,3.988,1.106c0.049,0.003,0.103-0.035,0.146-0.081c2.464,0.575,5.02,0.975,7.552,0.833
							c0.605-0.034,1.197-0.109,1.788-0.241c0.231-0.051,0.338-0.425,0.025-0.383c-2.745,0.365-5.488,0.106-8.189-0.457
							c-1.3-0.271-2.587-0.606-3.859-0.988c-1.328-0.398-2.609-0.929-3.924-1.368c-2.749-0.918-5.642-0.887-8.51-0.846
							c-2.957,0.042-5.959,0.165-8.88-0.399c-1.868-0.36-3.46-1.34-5.175-2.117c-1.33-0.603-3.368-1.579-4.639-0.343
							c-1.342,1.304,0.707,3.167,1.564,4.088c1.337,1.436,2.594,2.952,3.736,4.548c1.303,1.82,2.5,3.762,3.308,5.857
							c0.726,1.883,1.175,3.98,0.729,5.986c-0.108,0.487-0.267,0.944-0.492,1.389c-0.061,0.121,0.111,0.14,0.161,0.047
							c1.977-3.686,0.307-7.896-1.644-11.223C106.869,63.492,105.584,61.777,104.21,60.161z M102.422,54.626
							c0.011-0.027,0.016-0.054,0.021-0.082c0.192,0.029,0.383,0.072,0.573,0.126c-0.03-0.003-0.059-0.008-0.089-0.011
							C102.758,54.645,102.59,54.636,102.422,54.626z"/>
						<path style="fill:#A47462;" d="M146.232,64.268c-1.644,0.467-3.333-0.209-4.856-0.792c-1.828-0.7-3.699-1.149-5.609-1.571
							c-2.155-0.476-4.318-0.966-6.489-1.364c-2.12-0.388-4.277-0.501-6.43-0.477c-2.17,0.025-4.318,0.225-6.485,0.011
							c-2.082-0.206-4.119-0.489-6.217-0.384c-0.459,0.023-0.981,0.012-1.36,0.313c-0.469,0.373-0.495,1.075-0.448,1.622
							c0.071,0.811,0.431,1.575,0.776,2.3c0.409,0.862,0.788,1.73,1.147,2.614c1.711,4.219,3.235,8.592,3.765,13.136
							c0.017,0.144,0.268,0.016,0.256-0.112c-0.189-2.003-0.504-3.969-1.007-5.918c-0.489-1.891-1.124-3.738-1.815-5.563
							c-0.357-0.942-0.729-1.877-1.106-2.811c-0.319-0.788-0.718-1.539-1.041-2.325c-0.29-0.706-0.565-1.526-0.377-2.296
							c0.131-0.538,0.738-0.428,1.186-0.45c2.047-0.099,4.045,0.175,6.078,0.358c2.117,0.19,4.213-0.005,6.331-0.042
							c2.14-0.037,4.285,0.059,6.394,0.442c2.114,0.384,4.22,0.872,6.318,1.336c1.159,0.257,2.316,0.527,3.465,0.825
							c0.86,0.223,1.68,0.541,2.508,0.859c1.519,0.583,3.458,1.386,5.046,0.614C146.419,64.517,146.487,64.195,146.232,64.268z"/>
						<path style="fill:#A47462;" d="M130.609,64.546c-1.265-0.809-2.973-1.065-4.435-1.245c-1.168-0.144-2.348-0.151-3.523-0.172
							c-1.182-0.021-2.346-0.108-3.522-0.226c-1.671-0.168-3.652-0.353-5.174,0.532c-1.085,0.631-1.464,1.755-1.29,2.958
							c0.159,1.099,0.662,2.145,1.12,3.144c0.512,1.116,1.072,2.209,1.486,3.367c0.875,2.447,0.724,5.095,1.521,7.556
							c0.053,0.164,0.335,0.017,0.296-0.13c-0.578-2.136-0.432-4.386-0.956-6.533c-0.509-2.086-1.602-3.951-2.382-5.936
							c-0.434-1.104-0.997-2.755,0.026-3.72c0.471-0.443,1.138-0.623,1.759-0.729c0.967-0.164,1.955-0.123,2.929-0.044
							c1.128,0.092,2.248,0.22,3.381,0.247c1.096,0.026,2.194,0.02,3.289,0.097c0.943,0.067,1.874,0.226,2.796,0.431
							c0.697,0.155,1.411,0.339,2.041,0.684c1.417,0.774,1.678,2.174,1.533,3.679c-0.181,1.879-0.722,3.704-1.236,5.513
							c-1.129,3.969-2.286,8.341,0.091,12.102c0.135,0.213,0.557-0.081,0.426-0.298c-1.094-1.806-1.484-3.824-1.317-5.917
							c0.16-2.007,0.736-3.951,1.294-5.877c0.542-1.868,1.106-3.756,1.285-5.701C132.185,66.856,131.937,65.395,130.609,64.546z"/>
						<path style="fill:#A47462;" d="M122.619,64.502c-0.633,0.069-1.238,0.124-1.875,0.113c-0.605-0.01-1.213-0.021-1.817,0.026
							c-0.877,0.069-1.861,0.266-2.386,1.049c-0.66,0.984-0.304,2.362-0.014,3.406c1.2,4.319,2.905,8.635,1.981,13.188
							c-0.031,0.154,0.24,0.086,0.27-0.027c0.98-3.706,0.101-7.379-0.952-10.965c-0.268-0.912-0.549-1.823-0.785-2.743
							c-0.161-0.625-0.3-1.286-0.234-1.936c0.094-0.926,0.748-1.255,1.598-1.375c1.113-0.156,2.238,0.02,3.352-0.097
							c0.946-0.099,2.989-0.617,3.399,0.633c0.205,0.625,0.057,1.365-0.078,1.99c-0.129,0.595-0.308,1.177-0.448,1.769
							c-0.392,1.656-0.875,3.289-1.273,4.944c-0.861,3.577-1.492,7.696,0.499,11.026c0.132,0.22,0.545-0.077,0.43-0.301
							c-1.762-3.43-1.249-7.253-0.365-10.857c0.417-1.699,0.883-3.387,1.325-5.08c0.302-1.157,0.906-2.6,0.501-3.797
							C125.317,64.208,123.663,64.388,122.619,64.502z"/>
						<path style="fill:#A47462;" d="M121.553,77.713c0.131-1.289,0.428-2.528,0.708-3.791c0.294-1.325,0.562-2.702,0.369-4.062
							c-0.14-0.992-0.657-2.301-1.632-2.758c-0.652-0.305-1.242,0.158-1.542,0.723c-0.834,1.568-0.748,3.605-0.454,5.295
							c0.309,1.774,0.795,3.511,1.12,5.282c0.325,1.767,0.592,3.631,0.152,5.4c-0.026,0.106,0.132,0.083,0.153,0.003
							c0.76-2.89,0.128-5.805-0.447-8.666c-0.422-2.099-0.863-4.15-0.317-6.266c0.09-0.348,0.321-1.434,0.856-1.283
							c0.399,0.113,0.724,0.597,0.93,0.923c0.348,0.549,0.524,1.185,0.587,1.828c0.136,1.391-0.195,2.806-0.5,4.154
							c-0.256,1.128-0.484,2.242-0.596,3.394c-0.123,1.269-0.207,2.551-0.123,3.826c0.07,1.051,0.188,2.485,1.06,3.206
							c0.175,0.145,0.507-0.143,0.393-0.338C121.071,82.534,121.322,79.983,121.553,77.713z"/>
						<path style="fill:#A47462;" d="M56.897,41.909c-1.379-0.844-2.662-1.823-4.034-2.678c-1.369-0.853-2.812-1.578-4.186-2.423
							c-1.33-0.818-2.631-1.676-3.91-2.573c-1.459-1.023-2.91-2.062-4.355-3.105c-0.084-0.061-0.244,0.086-0.152,0.16
							c2.427,1.949,4.782,3.981,7.384,5.702c1.347,0.891,2.789,1.593,4.194,2.382c1.42,0.797,2.732,1.753,4.125,2.592
							c0.755,0.455,1.5,0.904,2.19,1.455c0.681,0.544,1.335,1.159,2.118,1.554c0.146,0.074,0.409-0.131,0.252-0.265
							C59.362,43.718,58.203,42.708,56.897,41.909z"/>
						<path style="fill:#A47462;" d="M29.325,4.507c0.606,0.374,1.098,0.884,1.57,1.412c0.224,0.27,0.464,0.527,0.703,0.785
							c0.026,0.028,0.05,0.057,0.076,0.085c0.016,0.017,0.033,0.033,0.049,0.051c0.211,0.224,0.422,0.449,0.643,0.664
							c0.683,0.676,1.402,1.322,2.081,1.998c1.78,1.771,3.722,3.499,5.944,4.696c3.734,2.012,7.933,2.38,12.096,2.569
							c0.567,0.061,1.135,0.116,1.703,0.162c2.017,0.165,4.039,0.257,6.058,0.372c1.292,0.147,2.593,0.285,3.891,0.201
							c0.173-0.011,0.347-0.327,0.109-0.317c-2.662,0.111-5.345-0.355-7.993-0.581c-1.3-0.111-2.578-0.329-3.865-0.528
							c-1.237-0.192-2.483-0.33-3.72-0.528c-0.803-0.128-1.606-0.269-2.402-0.436c-1.63-0.501-3.194-1.154-4.732-1.934
							c-1.224-0.621-2.427-1.29-3.602-2.003c-0.804-0.651-1.578-1.342-2.332-2.037c-1.048-0.966-2.177-1.864-3.187-2.867
							c-0.827-0.821-1.622-1.835-2.801-2.135C29.446,4.093,29.105,4.372,29.325,4.507z"/>
						<path style="fill:#A47462;" d="M21.145,2.956c0.039,0.068,0.13,0.051,0.202,0.004c0.007,0.006,0.015,0.012,0.022,0.018
							C21.263,3,21.159,3.105,21.231,3.182c1.157,1.233,2.365,2.415,3.596,3.573c1.086,1.332,2.24,2.55,3.494,3.733
							c1.507,1.421,3.052,2.802,4.602,4.175c0.705,0.624,1.416,1.242,2.155,1.826c0.758,0.599,1.563,1.125,2.342,1.695
							c0.727,0.532,1.431,1.1,2.206,1.563c0.785,0.469,1.638,0.806,2.526,1.022c1.883,0.459,3.81,0.384,5.728,0.268
							c0.988-0.06,1.978-0.132,2.969-0.135c1.015-0.003,2.03,0.083,3.041,0.171c1.01,0.088,2.014,0.212,3.022,0.317
							c1.037,0.108,2.078,0.142,3.118,0.217c1.673,0.12,3.317,0.373,4.957,0.677c0.069,0.015,0.139,0.027,0.209,0.043
							c4.518,1.037,9.052,2.75,13.738,2.769c0.175,0.001,0.349-0.302,0.109-0.317c-1.743-0.107-3.445-0.387-5.132-0.746
							c0.002-0.047-0.02-0.089-0.086-0.113c-1.923-0.688-3.905-1.147-5.902-1.563c-1.788-0.373-3.583-0.743-5.396-0.979
							c-0.547-0.087-1.096-0.166-1.648-0.231c-1.725-0.203-3.458-0.324-5.192-0.435c-1.984-0.297-3.916-0.596-5.931-0.577
							c-0.412,0.004-0.825,0.011-1.238,0.019c-2.184-0.267-4.34-0.692-6.399-1.479c-3.746-1.431-6.896-3.822-10.008-6.294
							c-0.124-0.099-0.245-0.201-0.368-0.3c-0.682-0.601-1.372-1.195-2.048-1.802c-1.57-1.411-3.034-2.875-4.427-4.46
							c-0.623-0.709-1.266-1.442-1.994-2.046c-0.349-0.289-0.75-0.557-1.14-0.787c-0.252-0.148-0.657-0.493-0.957-0.383
							c-0.068,0.025-0.152,0.119-0.126,0.198C21.069,2.863,21.112,2.9,21.145,2.956z M42.601,19.316
							c0.589,0.19,1.182,0.362,1.782,0.508C43.777,19.699,43.182,19.537,42.601,19.316z"/>
					</g>
				</g>
				<path style="opacity:0.47;fill:#A47462;" d="M10.035,17.635c0.452-0.2,0.955-0.198,1.436-0.125
					c1.043,0.16,2.034,0.593,2.969,1.066c1.046,0.53,2.063,1.111,3.115,1.629c1.148,0.566,2.344,1.022,3.534,1.49
					c2.228,0.876,4.453,1.649,6.784,2.208c2.303,0.553,4.638,0.963,6.969,1.375c1.162,0.205,2.325,0.412,3.485,0.636
					c-0.997-0.293-2.006-0.548-3.009-0.791c-2.431-0.59-4.858-1.165-7.222-1.995c-2.428-0.853-4.792-1.916-6.982-3.271
					c-0.876-0.542-1.717-1.139-2.566-1.722c-0.743-0.51-1.49-1.064-2.067-1.762c-0.493-0.596-0.888-1.34-0.714-2.135
					c0.165-0.759,0.775-1.224,1.459-1.506c0.797-0.327,1.666-0.45,2.516-0.554c0.868-0.106,1.725-0.212,2.589-0.347
					c2.797-0.437,5.631-0.544,8.458-0.566c2.743-0.021,5.481-0.063,8.203,0.327c4.062,0.582,7.958,1.877,11.891,3.016
					c-6.656-2.581-11.679-4.404-13.566-5.176C30.499,6.645,10.05,8.194,8.191,10.673C7.136,12.08,5.584,17.779,9.65,23.284
					c-0.023-0.064-0.049-0.127-0.071-0.191C9.088,21.656,8.095,18.493,10.035,17.635z"/>
			</g>
			<path style="fill:#1D1E21;" d="M136.191,55.102c0,0-10.975,5.531-11.284,11.506c-0.31,5.975,0.269,13.21,4.273,17.805
				c4.004,4.595,11.928,0.929,11.928,0.929L136.191,55.102z"/>
			<path style="fill:#47484C;" d="M128.688,83.573c-0.706-1.965-1.111-4.055-1.562-6.09c-0.406-1.832-0.757-3.659-0.93-5.529
				c-0.149-1.608-0.269-3.278-0.062-4.886c0.314-2.438,1.458-4.627,3.008-6.506c0.941-1.141,2.002-2.15,3.119-3.098
				c-3.183,2.168-7.17,5.577-7.355,9.144c-0.302,5.815,0.249,12.818,3.97,17.425C128.816,83.879,128.744,83.729,128.688,83.573z"/>
		</g>
		
			<linearGradient id="SVGID_00000078745925403362999360000013277739568688147851_" gradientUnits="userSpaceOnUse" x1="77.3482" y1="13.5525" x2="60.3852" y2="51.4288">
			<stop  offset="0" style="stop-color:#FFFFFF"/>
			<stop  offset="1" style="stop-color:#000000"/>
		</linearGradient>
		<path style="fill:url(#SVGID_00000078745925403362999360000013277739568688147851_);" d="M88.338,50.59
			c-7.513-6.127-25.769-16.988-34.593-19.864c-7.852-2.56-26.924-9.058-33.404-11.769c-0.151-0.056-0.305-0.104-0.455-0.161
			c-2.629-0.997-5.187-2.165-7.632-3.54c-0.59-0.287-1.122-0.576-1.563-0.874c0.616,0.814,1.307,1.572,2.067,2.265
			c1.579,1.44,3.385,2.6,5.283,3.587c8.351,3.293,31.986,11.439,36.693,12.722c5.212,1.421,23.402,12.01,25.958,14.078
			c2.556,2.068,27.402,18.5,30.231,19.664c2.474,1.018,6.766,2.192,7.805,2.471C116.355,68.22,95.481,56.416,88.338,50.59z"/>
	</g>
	<path style="fill:#434447;" d="M129.834,61.795c-0.743,1.003-1.938,2.846-0.953,4.066c0.63,0.781,1.8,1.097,2.721,1.36
		c1.047,0.299,2.085,0.573,3.119,0.916c1.242,0.412,2.502,0.764,3.767,1.095l-2.188-13.455c-0.705,0.536-1.405,1.08-2.087,1.648
		C132.638,58.736,131.06,60.14,129.834,61.795z"/>
	<path style="fill:#434447;" d="M138.982,72.266c-1.394-0.598-2.78-1.21-4.212-1.72c-0.955-0.34-1.927-0.651-2.922-0.853
		c-0.698-0.142-1.503-0.283-2.203-0.077c-0.676,0.198-0.833,0.866-0.885,1.5c-0.082,0.996,0.049,2.01,0.217,2.991
		c0.146,0.852,0.334,1.697,0.553,2.533c0.379,1.443,0.634,2.922,1.006,4.369c0.457,1.775,0.969,3.534,1.5,5.287
		c4.065,1.359,9.073-0.954,9.073-0.954L138.982,72.266z"/>
	<g>
		<path style="fill:#434447;" d="M335.139,45.25l-78.241,2.709h-50.02l-78.144-1.94c0,0,1.327,32.924,11.606,93.896
			c1.763,10.455,2.989,11.941,2.989,11.941h0.001c2.62,6.852,41.34,12.289,88.726,12.289c49.083,0,88.872-5.834,88.872-13.03
			c0-0.003-0.001-0.007-0.001-0.01c0.596-1.194,1.254-4.215,2.507-11.19C332.464,89.679,335.139,45.25,335.139,45.25z"/>
		<path style="fill:#2F2F31;" d="M232.058,164.495c-47.253,0-86.37-5.497-89.053-12.514l0.025-0.01
			c-0.685-0.947-1.818-4.789-3.034-11.999c-10.166-60.296-11.597-93.61-11.611-93.94l-0.015-0.373l78.517,1.949h50.012l78.613-2.722
			l-0.023,0.384c-0.027,0.444-2.78,45.024-11.708,94.705c-1.276,7.1-1.917,9.977-2.503,11.212
			C320.988,158.662,281.902,164.495,232.058,164.495z M129.102,46.378c0.186,3.82,2.004,36.652,11.584,93.478
			c1.697,10.061,2.87,11.718,2.919,11.783l0.051,0.091c2.545,6.652,42.202,12.064,88.401,12.064c23.722,0,46.022-1.354,62.791-3.813
			c23.223-3.405,25.73-7.336,25.73-8.867v-0.083l0.036-0.084c0.555-1.113,1.203-4.017,2.475-11.096
			c8.48-47.185,11.385-89.763,11.674-94.24l-77.855,2.695l-50.032,0L129.102,46.378z"/>
	</g>
	<g>
		<path style="opacity:0.4;fill:#434447;" d="M335.139,45.25l-78.241,2.709h-50.02l-78.143-1.94c0,0,0.1,2.478,0.456,7.323
			c0.002,0.002,6.968,9.549,77.446,10.943c70.486,1.394,118.355-6.689,118.355-6.689s5.112-1.676,5.112,1.267
			c0,2.943-6.869,70.29-10.689,83.499c-3.815,13.193-22.892,17.718-22.939,17.73c15.152-2.337,24.453-5.497,24.453-8.976
			c0-0.003-0.001-0.007-0.001-0.01c0.596-1.194,1.254-4.215,2.507-11.19C332.464,89.679,335.139,45.25,335.139,45.25z"/>
	</g>
	<g>
		<g>
			<path style="fill:#343538;" d="M337.581,43.851l-6.142-0.012c-12.753-5.951-52.412-10.29-99.37-10.29
				c-45.915,0-84.853,4.149-98.482,9.896l-7.172-0.014l1.976,4.964l0.054,0.01c1.695,7.753,47.437,13.965,103.623,13.965
				c55.48,0,100.781-6.057,103.543-13.673L337.581,43.851z"/>
			<path style="fill:#2F2F31;" d="M232.07,62.719c-56.163,0-101.589-6.169-103.923-14.075l-0.08-0.12l-2.168-5.445l7.618,0.016
				c14.132-5.921,53.71-9.896,98.553-9.896c45.488,0,86.346,4.229,99.447,10.29l6.584,0.013l-2.163,5.326
				C333.115,56.612,287.488,62.719,232.07,62.719z M128.646,48.085l0.039,0.007l0.104,0.237c1.65,7.549,47.982,13.69,103.281,13.69
				c54.224,0,100.526-6.03,103.214-13.442l1.778-4.377l-5.77-0.044c-12.943-6.04-53.744-10.257-99.221-10.257
				c-44.826,0-84.349,3.966-98.346,9.869l-0.137,0.027l-6.654-0.013L128.646,48.085z"/>
		</g>
		<g>
			<ellipse style="fill:#434447;" cx="232.07" cy="42.899" rx="105.73" ry="14.696"/>
			<path style="fill:#2F2F31;" d="M232.07,57.945c-59.484,0-106.08-6.609-106.08-15.046s46.596-15.046,106.08-15.046
				s106.08,6.609,106.08,15.046S291.554,57.945,232.07,57.945z M232.07,28.554c-57.121,0-105.379,6.569-105.379,14.345
				s48.258,14.346,105.379,14.346c57.121,0,105.379-6.57,105.379-14.346S289.191,28.554,232.07,28.554z"/>
		</g>
		<ellipse style="fill:#2A2B2D;" cx="232.07" cy="41.399" rx="100.395" ry="11.943"/>
		<ellipse style="fill:#2A2B2D;" cx="232.07" cy="41.399" rx="100.395" ry="11.943"/>
	</g>
	
		<linearGradient id="SVGID_00000031924923499685817580000001435839385320935099_" gradientUnits="userSpaceOnUse" x1="201.8349" y1="109.9185" x2="305.9753" y2="109.9185">
		<stop  offset="0" style="stop-color:#FFFFFF"/>
		<stop  offset="1" style="stop-color:#000000"/>
	</linearGradient>
	<path style="opacity:0.24;fill:url(#SVGID_00000031924923499685817580000001435839385320935099_);" d="M203.3,64.208
		c0,0,73.806,0.95,121.829-6.613c0,0,6.119-0.359,0,2.197c-6.119,2.556-28.712,5.344-28.453,14.175
		c0.259,8.83-7.613,77.148-7.613,77.148s2.529,5.345,6.478,6.042c3.95,0.697-8.748,3.486-17.155,3.95
		c-8.407,0.465-33.682,2.849-24.879-1.015c8.803-3.865,13.682-2.006,15.077-14.089c1.395-12.083,3.022-67.884,3.022-67.884
		s1.162-5.546-8.365-6.01C253.713,71.643,179.839,66.066,203.3,64.208z"/>
	
		<linearGradient id="SVGID_00000175323030769680804370000003874216367488906929_" gradientUnits="userSpaceOnUse" x1="135.2277" y1="110.8851" x2="160.3239" y2="109.6457">
		<stop  offset="0" style="stop-color:#FFFFFF"/>
		<stop  offset="1" style="stop-color:#000000"/>
	</linearGradient>
	<path style="opacity:0.24;fill:url(#SVGID_00000175323030769680804370000003874216367488906929_);" d="M133.095,56.24
		c0,0,5.922,64.666,11.266,87.439c0,0,1.162,7.668,5.112,9.76c3.95,2.091,31.809,6.967,54.128,8.821c0,0-36.761-5.568-45.328-12.772
		c-8.567-7.204-14.432-89.169-14.432-89.169L133.095,56.24z"/>
	
		<linearGradient id="SVGID_00000013914746887879643710000011176769028635854480_" gradientUnits="userSpaceOnUse" x1="195.5838" y1="4.9263" x2="200.2312" y2="51.4009">
		<stop  offset="0" style="stop-color:#FFFFFF"/>
		<stop  offset="1" style="stop-color:#000000"/>
	</linearGradient>
	<path style="opacity:0.24;fill:url(#SVGID_00000013914746887879643710000011176769028635854480_);" d="M165.761,48.984
		c1.73,0.021,3.461,0.154,5.18,0.332c2.432,0.253,4.855,0.587,7.29,0.815c2.57,0.241,5.153,0.325,7.727,0.534
		c4.22,0.343,8.462,0.745,12.697,0.63c-0.106-3.6-0.267-10.999,0.067-14.276c0.45-4.415,80.183-2.788,58.572-5.344
		c-21.611-2.556-88.636,0.465-105.265,4.183c-16.629,3.718-15.463,5.541-15.463,5.541h0.669c0,0,20.139-4.225,24.167-3.45
		C164.13,38.473,165.294,44.893,165.761,48.984z"/>
</g>
</svg>
